<?xml version="1.0" standalone="no"?>
<!DOCTYPE svg PUBLIC "-//W3C//DTD SVG 20010904//EN"
 "http://www.w3.org/TR/2001/REC-SVG-20010904/DTD/svg10.dtd">
<svg version="1.0" xmlns="http://www.w3.org/2000/svg"
 width="300.000000pt" height="134.000000pt" viewBox="0 0 300.000000 134.000000"
 preserveAspectRatio="xMidYMid meet">

<g transform="translate(0.000000,134.000000) scale(0.100000,-0.100000)"
fill="#000000" stroke="none">
<path d="M0 1073 c0 -155 4 -263 9 -257 12 13 345 466 366 498 l17 26 -196 0
-196 0 0 -267z"/>
<path d="M400 670 l0 -670 210 0 210 0 0 668 c1 527 3 664 13 651 7 -9 161
-307 342 -662 182 -355 333 -643 337 -639 4 4 79 149 168 322 304 592 505 984
508 992 2 4 -106 8 -240 8 l-244 0 -42 -86 c-24 -48 -46 -84 -49 -80 -3 3 -27
41 -53 83 l-46 78 -557 3 -557 2 0 -670z"/>
<path d="M2060 838 c-139 -271 -293 -571 -342 -666 l-90 -172 244 0 243 0 46
87 46 86 53 -87 53 -86 342 0 342 0 -337 660 c-186 364 -340 663 -343 666 -2
3 -118 -217 -257 -488z"/>
</g>
</svg>
