<?xml version="1.0" standalone="no"?>
<!DOCTYPE svg PUBLIC "-//W3C//DTD SVG 20010904//EN"
 "http://www.w3.org/TR/2001/REC-SVG-20010904/DTD/svg10.dtd">
<svg version="1.0" xmlns="http://www.w3.org/2000/svg"
 width="45.000000pt" height="20.000000pt" viewBox="0 0 45.000000 20.000000"
 preserveAspectRatio="xMidYMid meet">

<g transform="translate(0.000000,20.000000) scale(0.100000,-0.100000)"
fill="#000000" stroke="none">
<path d="M0 163 l0 -38 25 30 c31 38 31 45 0 45 -22 0 -25 -4 -25 -37z"/>
<path d="M60 100 l0 -100 30 0 30 0 0 100 0 100 -30 0 -30 0 0 -100z"/>
<path d="M130 193 c1 -5 23 -48 49 -97 l49 -88 49 96 50 96 -38 0 c-20 0 -40
-6 -43 -12 -5 -10 -7 -10 -12 0 -6 13 -104 18 -104 5z"/>
<path d="M298 100 c-27 -49 -48 -91 -48 -94 0 -12 69 -5 73 7 4 10 7 10 18 0
12 -12 99 -19 99 -8 0 7 -89 185 -93 185 -1 0 -23 -41 -49 -90z"/>
</g>
</svg>
